<svg width="32" height="32" viewBox="0 0 32 32" fill="none" xmlns="http://www.w3.org/2000/svg">
<path d="M31.9847 25.2377C32.0526 25.7572 31.8942 26.2089 31.5105 26.5928L27.0049 31.0643C26.8017 31.2901 26.5364 31.4822 26.2089 31.6402C25.8814 31.7983 25.5597 31.8999 25.2436 31.9451C25.221 31.9451 25.1531 31.9509 25.0401 31.9622C24.9274 31.9734 24.7806 31.9792 24.5999 31.9792C24.1707 31.9792 23.4762 31.9058 22.5164 31.7589C21.5565 31.612 20.3822 31.2507 18.9934 30.6749C17.6043 30.099 16.0291 29.235 14.2676 28.0833C12.5061 26.9317 10.6315 25.3507 8.64412 23.3407C7.06324 21.7824 5.75336 20.2918 4.71449 18.8691C3.67562 17.4462 2.84001 16.1307 2.20765 14.9224C1.57524 13.7142 1.10098 12.6189 0.784798 11.6365C0.46862 10.6541 0.254071 9.80715 0.141151 9.09575C0.0282301 8.38435 -0.0169381 7.82539 0.00564603 7.41888C0.0282301 7.01237 0.0395222 6.78652 0.0395222 6.74136C0.0846904 6.42518 0.186319 6.10335 0.344408 5.77589C0.502496 5.44842 0.694461 5.18305 0.920302 4.9798L5.42583 0.474266C5.74201 0.158089 6.10336 0 6.50987 0C6.80346 0 7.06318 0.0846904 7.28902 0.254071C7.51486 0.423452 7.70683 0.632355 7.86492 0.88078L11.4897 7.75764C11.6929 8.11899 11.7494 8.51421 11.659 8.94331C11.5687 9.3724 11.3767 9.73375 11.0832 10.0273L9.42322 11.6873C9.37805 11.7324 9.33853 11.8058 9.30465 11.9075C9.27078 12.0091 9.25384 12.0938 9.25384 12.1615C9.34418 12.6358 9.54743 13.1778 9.86361 13.7876C10.1346 14.3296 10.5524 14.9902 11.117 15.7694C11.6816 16.5485 12.4834 17.4462 13.5222 18.4625C14.5385 19.5014 15.4419 20.3087 16.2323 20.8847C17.0226 21.4604 17.6834 21.884 18.2141 22.155C18.7449 22.426 19.1514 22.5898 19.4336 22.646L19.857 22.7308C19.9021 22.7308 19.9757 22.7138 20.0772 22.68C20.1788 22.646 20.2522 22.6066 20.2975 22.5614L22.2284 20.5965C22.6351 20.2353 23.1091 20.0546 23.6512 20.0546C24.0352 20.0546 24.34 20.1223 24.5658 20.2578H24.5996L31.1377 24.1197C31.6121 24.4135 31.8944 24.7861 31.9847 25.2377Z" fill="url(#paint0bc_linear)"/>
<defs>
<linearGradient id="paint0bc_linear" x1="30.0534" y1="4.53037" x2="1.00746" y2="5.20085" gradientUnits="userSpaceOnUse">
<stop stop-color="#FD6311"/>
<stop offset="1" stop-color="#F95005"/>
</linearGradient>
</defs>
</svg>
