<svg width="31" height="29" viewBox="0 0 31 29" fill="none" xmlns="http://www.w3.org/2000/svg">
<path d="M16.0254 25.8584C16.0254 27.2802 17.178 28.4329 18.5998 28.4329C20.0217 28.4329 21.1743 27.2802 21.1743 25.8584C21.1743 24.4366 20.0217 23.2839 18.5998 23.2839C17.178 23.2839 16.0254 24.4366 16.0254 25.8584ZM8.17561 23.2839C9.59745 23.2839 10.7501 24.4366 10.7501 25.8584C10.7501 27.2802 9.59745 28.4329 8.17561 28.4329C6.75377 28.4329 5.60114 27.2802 5.60114 25.8584C5.60115 24.4366 6.75377 23.2839 8.17561 23.2839ZM0.184231 11.1983L3.35206 20.6137C3.35206 20.6137 3.61429 22.011 4.95035 22.011C6.28641 22.011 19.3521 22.011 20.9465 22.011C22.541 22.011 22.608 20.2596 22.608 20.2596C22.608 20.2596 24.3077 7.64951 24.3919 6.88769C24.4761 6.12587 25.4504 5.56122 25.4504 5.56122L29.6423 3.60309C31.9373 2.40295 30.8941 0.119418 29.6423 0.643888C24.3268 3.15136 21.8576 4.38596 21.6988 5.37364C21.538 6.36322 21.2585 8.74629 21.2585 8.74629V8.7616C21.226 8.75203 21.203 8.74629 21.203 8.74629C21.203 8.74629 4.90249 8.74629 1.61023 8.74629C-0.755604 8.74629 0.184231 11.2021 0.184231 11.1983ZM4.7666 16.441L4.79914 16.4429H20.3072L19.9876 18.9772H5.52075L4.7666 16.441ZM3.25637 11.3303H20.9484L20.6077 14.0388C17.214 14.0388 7.27598 14.0388 4.05646 14.0388L3.25637 11.3303Z" fill="#FFFFFF"/>
</svg>
