<svg width="19" height="19" viewBox="0 0 19 19" fill="none" xmlns="http://www.w3.org/2000/svg">
<path d="M9.20312 0C4.12074 0 0 4.12222 0 9.20312C0 14.287 4.12074 18.4062 9.20312 18.4062C14.2855 18.4062 18.4062 14.287 18.4062 9.20312C18.4062 4.12222 14.2855 0 9.20312 0ZM9.20312 4.08203C10.0639 4.08203 10.7617 4.77984 10.7617 5.64062C10.7617 6.50141 10.0639 7.19922 9.20312 7.19922C8.34234 7.19922 7.64453 6.50141 7.64453 5.64062C7.64453 4.77984 8.34234 4.08203 9.20312 4.08203ZM11.2812 13.5078C11.2812 13.7537 11.0819 13.9531 10.8359 13.9531H7.57031C7.32439 13.9531 7.125 13.7537 7.125 13.5078V12.6172C7.125 12.3713 7.32439 12.1719 7.57031 12.1719H8.01562V9.79688H7.57031C7.32439 9.79688 7.125 9.59749 7.125 9.35156V8.46094C7.125 8.21501 7.32439 8.01562 7.57031 8.01562H9.94531C10.1912 8.01562 10.3906 8.21501 10.3906 8.46094V12.1719H10.8359C11.0819 12.1719 11.2812 12.3713 11.2812 12.6172V13.5078Z" fill="url(#paintg0_linear)"/>
<defs>
<linearGradient id="paintg0_linear" x1="17.2866" y1="2.60755" x2="0.579476" y2="2.99295" gradientUnits="userSpaceOnUse">
<stop stop-color="#FD6311"/>
<stop offset="1" stop-color="#F95005"/>
</linearGradient>
</defs>
</svg>
