<svg width="17" height="23" viewBox="0 0 17 23" fill="none" xmlns="http://www.w3.org/2000/svg">
<path d="M17 8.11765C17 3.63941 13.1892 0 8.5 0C3.81083 0 0 3.63941 0 8.11765C0 14.2059 8.5 23 8.5 23C8.5 23 17 14.2059 17 8.11765ZM5.66667 8.11765C5.66667 6.62941 6.94167 5.41176 8.5 5.41176C10.0583 5.41176 11.3333 6.62941 11.3333 8.11765C11.3333 8.83529 11.0348 9.52354 10.5035 10.031C9.97212 10.5384 9.25145 10.8235 8.5 10.8235C7.74855 10.8235 7.02788 10.5384 6.49653 10.031C5.96518 9.52354 5.66667 8.83529 5.66667 8.11765Z" fill="url(#paint0u_linear)"/>
<defs>
<linearGradient id="paint0u_linear" x1="15.9659" y1="3.25833" x2="0.531479" y2="3.52149" gradientUnits="userSpaceOnUse">
<stop stop-color="#FD6311"/>
<stop offset="1" stop-color="#F95005"/>
</linearGradient>
</defs>
</svg>
