<?xml version="1.0" encoding="utf-8"?>
<!-- Generator: Adobe Illustrator 21.0.0, SVG Export Plug-In . SVG Version: 6.00 Build 0)  -->
<svg version="1.1" id="Layer_1" xmlns="http://www.w3.org/2000/svg" xmlns:xlink="http://www.w3.org/1999/xlink" x="0px" y="0px"
	 viewBox="0 0 512 512" style="enable-background:new 0 0 512 512;" xml:space="preserve">
<style type="text/css">
	.st0{fill:#806C51;}
	.st1{fill:#FFFFFF;}
</style>
<g id="Слой_2">
	<path class="st0" d="M445.5,491.1h-374c-27.7,0-50.3-22.7-50.3-50.3v-374c0-27.7,22.7-50.3,50.3-50.3h374
		c27.7,0,50.3,22.7,50.3,50.3v374C495.8,468.4,473.2,491.1,445.5,491.1z"/>
	<g>
		<path class="st1" d="M103,64.9H230c23.7,0,47.4,3.6,71.1,10.8c23.7,7.2,45.1,18.6,64.3,34.1c19.2,15.5,34.7,35.4,46.5,59.6
			c11.8,24.2,17.8,53.3,17.8,87.3c0,32.9-5.9,61.3-17.8,85.4c-11.9,24-27.4,43.9-46.5,59.6c-19.2,15.7-40.6,27.5-64.3,35.2
			c-23.7,7.8-47.4,11.7-71.1,11.7H103V64.9z M154.7,401.5h64.8c22.3,0,43-3.3,62-9.8c19-6.5,35.4-15.9,49.2-28.2
			c13.8-12.3,24.5-27.5,32.2-45.5c7.7-18.1,11.5-38.5,11.5-61.2c0-23.8-3.8-44.8-11.5-62.9c-7.7-18.1-18.4-33.1-32.2-45.3
			c-13.8-12.1-30.2-21.3-49.2-27.6c-19-6.3-39.7-9.5-62-9.5h-64.8v85.1l-21.9,9.5l-22.2,19.3l-6.5,24.7l4.7,36.5l15.8,19l30.1,12.3
			V401.5z"/>
	</g>
</g>
<path class="st1" d="M159.9,143.6c-61.9,0-112.2,50.3-112.2,112.1S98,367.8,159.9,367.8s112.2-50.3,112.2-112.1
	S221.7,143.6,159.9,143.6z M161.2,310.2c-30.4,0-55.2-24.7-55.2-55.1c0-30.4,24.8-55.1,55.2-55.1c30.4,0,55.2,24.7,55.2,55.1
	S191.6,310.2,161.2,310.2z"/>
<circle class="st1" cx="161.7" cy="254.6" r="17"/>
</svg>
